<?xml version="1.0" encoding="utf-8"?>
<svg viewBox="0 0 500 360" xmlns="http://www.w3.org/2000/svg">
  <defs>
    <linearGradient x1="65.72723" y1="235" x2="484.27277" y2="235" gradientUnits="userSpaceOnUse" id="color-1478077751" gradientTransform="matrix(1, 0, 0, 1, -19.42612, 0.010212)">
      <stop offset="0" stop-color="#bdc3c7"/>
      <stop offset="1" stop-color="#767a7c"/>
    </linearGradient>
  </defs>
  <rect width="512.882" height="250" fill="#07194d" style="" x="-2.448" y="0.809"/>
  <g fill="url(#color-1478077751)" fill-rule="none" stroke="none" stroke-width="1" stroke-linecap="butt" stroke-linejoin="miter" stroke-miterlimit="10" stroke-dasharray="" stroke-dashoffset="0" font-family="none" font-weight="none" font-size="none" text-anchor="none" style="mix-blend-mode: normal" transform="matrix(1, 0, 0, 1, -27.166208, 7.602034)">
    <g data-paper-data="{&quot;isGlobalGroup&quot;:true,&quot;bounds&quot;:{&quot;x&quot;:65.72722769337429,&quot;y&quot;:180.2070901101753,&quot;width&quot;:418.5455446132514,&quot;height&quot;:109.58581977964931}}">
      <g data-paper-data="{&quot;stacked&quot;:true,&quot;isPrimaryText&quot;:true}" fill-rule="nonzero" transform="matrix(1, 0, 0, 1, -0.793616, 7.142635)">
        <path d="M253.65617,226.27617h-10.53709l-16.70514,-16.7337h-5.22571v-7.48162h5.22571l16.70514,-16.7337h10.53709l-21.04562,20.4745zM218.21843,226.27617h-7.42451v-40.94901h7.42451z" data-paper-data="{&quot;glyphName&quot;:&quot;K&quot;,&quot;glyphIndex&quot;:0,&quot;firstGlyphOfWord&quot;:true,&quot;word&quot;:1,&quot;line&quot;:1,&quot;firstGlyphOfFirstLine&quot;:true}"/>
        <path d="M291.69249,209.54247h-23.44431v-7.48162h23.44431zM295.03352,226.27617h-26.78534c-1.02801,0 -2.1512,-0.18085 -3.36958,-0.54256c-1.21838,-0.36171 -2.34633,-0.95662 -3.38386,-1.78474c-1.03753,-0.82812 -1.90372,-1.90372 -2.59858,-3.2268c-0.69486,-1.32309 -1.04229,-2.94601 -1.04229,-4.86876v-26.78534c0,-0.514 0.09519,-0.99945 0.28556,-1.45635c0.19037,-0.45689 0.45213,-0.85667 0.78528,-1.19934c0.33315,-0.34267 0.72817,-0.60919 1.18507,-0.79956c0.45689,-0.19037 0.95186,-0.28556 1.4849,-0.28556h33.43884v7.42451h-29.75514v23.10164c0,0.9709 0.257,1.71335 0.77101,2.22735c0.514,0.514 1.26597,0.77101 2.25591,0.77101h26.72822z" data-paper-data="{&quot;glyphName&quot;:&quot;E&quot;,&quot;glyphIndex&quot;:1,&quot;word&quot;:1,&quot;line&quot;:1}"/>
        <path d="M339.20934,192.75167h-16.36247v33.5245h-7.42451v-33.5245h-16.39103v-7.42451h40.178z" data-paper-data="{&quot;glyphName&quot;:&quot;T&quot;,&quot;glyphIndex&quot;:2,&quot;word&quot;:1,&quot;line&quot;:1}"/>
        <path d="M385.58395,199.09105c0,1.69431 -0.20941,3.20777 -0.62823,4.54037c-0.41882,1.3326 -0.98517,2.50815 -1.69907,3.52664c-0.71389,1.01849 -1.53725,1.88944 -2.47008,2.61286c-0.93282,0.72341 -1.90848,1.31833 -2.92697,1.78474c-1.01849,0.46641 -2.0465,0.80432 -3.08403,1.01373c-1.03753,0.20941 -2.01318,0.31411 -2.92697,0.31411l15.5058,13.39267h-11.47943l-15.47724,-13.39267h-5.33993v-7.42451h16.79081c0.93282,-0.07615 1.78474,-0.27128 2.55574,-0.58539c0.77101,-0.31411 1.43731,-0.73769 1.99891,-1.27073c0.5616,-0.53304 0.99469,-1.17555 1.29929,-1.92752c0.3046,-0.75197 0.45689,-1.6134 0.45689,-2.5843v-4.68315c0,-0.41882 -0.05235,-0.73769 -0.15706,-0.95662c-0.1047,-0.21893 -0.23796,-0.38074 -0.39978,-0.48545c-0.16182,-0.1047 -0.33315,-0.16658 -0.514,-0.18561c-0.18085,-0.01904 -0.34743,-0.02856 -0.49973,-0.02856h-24.50087v33.5245h-7.42451v-37.2082c0,-0.514 0.09519,-0.99945 0.28556,-1.45635c0.19037,-0.45689 0.45213,-0.85667 0.78528,-1.19934c0.33315,-0.34267 0.72817,-0.60919 1.18507,-0.79956c0.45689,-0.19037 0.95186,-0.28556 1.4849,-0.28556h28.18457c1.65624,0 3.05547,0.29984 4.1977,0.89951c1.14223,0.59967 2.0703,1.35164 2.78419,2.25591c0.71389,0.90427 1.2279,1.87992 1.54201,2.92697c0.31411,1.04705 0.47117,2.02746 0.47117,2.94125z" data-paper-data="{&quot;glyphName&quot;:&quot;R&quot;,&quot;glyphIndex&quot;:3,&quot;word&quot;:1,&quot;line&quot;:1}"/>
        <path d="M436.01348,209.71381c0,2.49387 -0.42834,4.78785 -1.28501,6.88195c-0.85667,2.09409 -2.0465,3.90263 -3.56947,5.4256c-1.52298,1.52298 -3.32675,2.70804 -5.41132,3.5552c-2.08457,0.84716 -4.35476,1.27073 -6.81056,1.27073h-10.05164c-2.4558,0 -4.73074,-0.42358 -6.82483,-1.27073c-2.09409,-0.84716 -3.90263,-2.03222 -5.4256,-3.5552c-1.52298,-1.52298 -2.71756,-3.33151 -3.58375,-5.4256c-0.86619,-2.09409 -1.29929,-4.38807 -1.29929,-6.88195v-7.82429c0,-2.47484 0.4331,-4.76406 1.29929,-6.86767c0.86619,-2.10361 2.06078,-3.91214 3.58375,-5.4256c1.52298,-1.51346 3.33151,-2.69852 5.4256,-3.5552c2.09409,-0.85667 4.36904,-1.28501 6.82483,-1.28501h10.05164c2.4558,0 4.72598,0.42834 6.81056,1.28501c2.08457,0.85667 3.88835,2.04174 5.41132,3.5552c1.52298,1.51346 2.7128,3.32199 3.56947,5.4256c0.85667,2.10361 1.28501,4.39283 1.28501,6.86767zM428.58897,201.88952c0,-1.46586 -0.23321,-2.79371 -0.69962,-3.98353c-0.46641,-1.18982 -1.12319,-2.20831 -1.97035,-3.05547c-0.84716,-0.84716 -1.86565,-1.50394 -3.05547,-1.97035c-1.18982,-0.46641 -2.49863,-0.69962 -3.92642,-0.69962h-10.05164c-1.44683,0 -2.76515,0.23321 -3.95498,0.69962c-1.18982,0.46641 -2.21307,1.12319 -3.06975,1.97035c-0.85667,0.84716 -1.51822,1.86565 -1.98463,3.05547c-0.46641,1.18982 -0.69962,2.51767 -0.69962,3.98353v7.82429c0,1.46586 0.23321,2.79371 0.69962,3.98353c0.46641,1.18982 1.12795,2.20831 1.98463,3.05547c0.85667,0.84716 1.87992,1.50394 3.06975,1.97035c1.18982,0.46641 2.50815,0.69962 3.95498,0.69962h9.99453c1.44683,0 2.76515,-0.23321 3.95498,-0.69962c1.18982,-0.46641 2.21307,-1.12319 3.06975,-1.97035c0.85667,-0.84716 1.51822,-1.86565 1.98463,-3.05547c0.46641,-1.18982 0.69962,-2.51767 0.69962,-3.98353z" data-paper-data="{&quot;glyphName&quot;:&quot;O&quot;,&quot;glyphIndex&quot;:4,&quot;word&quot;:1,&quot;line&quot;:1}"/>
        <path d="M484.27277,223.10648c0,0.53304 -0.09995,1.02801 -0.29984,1.4849c-0.19989,0.45689 -0.46641,0.85191 -0.79956,1.18507c-0.33315,0.33315 -0.72817,0.59491 -1.18507,0.78528c-0.45689,0.19037 -0.94234,0.28556 -1.45635,0.28556c-0.45689,0 -0.91854,-0.08567 -1.38496,-0.257c-0.46641,-0.17133 -0.88047,-0.44737 -1.24218,-0.82812l-27.128,-28.32735v28.84135h-7.42451v-37.77932c0,-0.76149 0.21417,-1.45159 0.64251,-2.0703c0.42834,-0.61871 0.97566,-1.08036 1.64196,-1.38496c0.70438,-0.28556 1.42779,-0.35695 2.17024,-0.21417c0.74245,0.14278 1.3802,0.49021 1.91324,1.04229l27.128,28.29879v-28.84135h7.42451z" data-paper-data="{&quot;glyphName&quot;:&quot;N&quot;,&quot;glyphIndex&quot;:5,&quot;lastGlyphOfWord&quot;:true,&quot;word&quot;:1,&quot;line&quot;:1,&quot;lastGlyphOfFirstLine&quot;:true}"/>
        <path d="M231.87729,251.72003h-14.60713v-4.66147h14.60713zM233.95894,262.14606h-16.68877c-0.64051,0 -1.34032,-0.11268 -2.09944,-0.33805c-0.75912,-0.22536 -1.4619,-0.59603 -2.10834,-1.11199c-0.64644,-0.51596 -1.18612,-1.18612 -1.61906,-2.01048c-0.43294,-0.82436 -0.6494,-1.83553 -0.6494,-3.03351v-16.68877c0,-0.32025 0.05931,-0.62272 0.17792,-0.90739c0.11861,-0.28467 0.2817,-0.53376 0.48928,-0.74726c0.20757,-0.2135 0.45369,-0.37956 0.73836,-0.49817c0.28467,-0.11861 0.59306,-0.17792 0.92518,-0.17792h20.83428v4.62589h-18.53913v14.39362c0,0.60492 0.16013,1.06751 0.48038,1.38777c0.32025,0.32025 0.78877,0.48038 1.40556,0.48038h16.65319z" data-paper-data="{&quot;glyphName&quot;:&quot;E&quot;,&quot;glyphIndex&quot;:6,&quot;firstGlyphOfWord&quot;:true,&quot;word&quot;:2,&quot;line&quot;:2,&quot;firstGlyphOfSecondLine&quot;:true}"/>
        <path d="M263.92045,260.17117c0,0.33211 -0.06227,0.64051 -0.18681,0.92518c-0.12454,0.28467 -0.2906,0.53079 -0.49817,0.73836c-0.20757,0.20757 -0.45369,0.37066 -0.73836,0.48928c-0.28467,0.11861 -0.58713,0.17792 -0.90739,0.17792c-0.28467,0 -0.57231,-0.05338 -0.86291,-0.16013c-0.2906,-0.10675 -0.54858,-0.27874 -0.77395,-0.51596l-16.90228,-17.64954v17.96979h-4.62589v-23.53864c0,-0.47445 0.13344,-0.90442 0.40032,-1.28991c0.26688,-0.38549 0.60789,-0.67313 1.02303,-0.86291c0.43887,-0.17792 0.88959,-0.2224 1.35218,-0.13344c0.46259,0.08896 0.85994,0.30543 1.19206,0.6494l16.90228,17.63174v-17.96979h4.62589z" data-paper-data="{&quot;glyphName&quot;:&quot;N&quot;,&quot;glyphIndex&quot;:7,&quot;word&quot;:2,&quot;line&quot;:2}"/>
        <path d="M294.4691,259.81533c0,0.33211 -0.05931,0.64051 -0.17792,0.92518c-0.11861,0.28467 -0.2817,0.53079 -0.48928,0.73836c-0.20757,0.20757 -0.45369,0.37066 -0.73836,0.48928c-0.28467,0.11861 -0.59306,0.17792 -0.92518,0.17792h-16.68877c-0.427,0 -0.88663,-0.05041 -1.37887,-0.15123c-0.49224,-0.10082 -0.97855,-0.25798 -1.45893,-0.47148c-0.48038,-0.2135 -0.94,-0.48928 -1.37887,-0.82732c-0.43887,-0.33805 -0.82732,-0.74726 -1.16537,-1.22764c-0.33805,-0.48038 -0.60789,-1.03786 -0.80953,-1.67244c-0.20164,-0.63458 -0.30246,-1.34922 -0.30246,-2.14392v-12.52548c0,-0.427 0.05041,-0.88663 0.15123,-1.37887c0.10082,-0.49224 0.25798,-0.97855 0.47148,-1.45893c0.2135,-0.48038 0.49224,-0.94 0.83622,-1.37887c0.34398,-0.43887 0.75615,-0.82732 1.23654,-1.16537c0.48038,-0.33805 1.03489,-0.60789 1.66354,-0.80953c0.62865,-0.20164 1.34032,-0.30246 2.13502,-0.30246h18.80601v4.62589h-18.80601c-0.60492,0 -1.06751,0.16013 -1.38777,0.48038c-0.32025,0.32025 -0.48038,0.7947 -0.48038,1.42335v12.48989c0,0.59306 0.16309,1.05269 0.48928,1.37887c0.32618,0.32618 0.78581,0.48928 1.37887,0.48928h14.39362v-5.80015h-12.31197v-4.66147h14.60713c0.33211,0 0.64051,0.06227 0.92518,0.18681c0.28467,0.12454 0.53079,0.29357 0.73836,0.50707c0.20757,0.2135 0.37066,0.45962 0.48928,0.73836c0.11861,0.27874 0.17792,0.57824 0.17792,0.89849z" data-paper-data="{&quot;glyphName&quot;:&quot;G&quot;,&quot;glyphIndex&quot;:8,&quot;word&quot;:2,&quot;line&quot;:2}"/>
        <path d="M320.26731,251.72003h-14.60713v-4.66147h14.60713zM322.34896,262.14606h-16.68877c-0.64051,0 -1.34032,-0.11268 -2.09944,-0.33805c-0.75912,-0.22536 -1.4619,-0.59603 -2.10834,-1.11199c-0.64644,-0.51596 -1.18612,-1.18612 -1.61906,-2.01048c-0.43294,-0.82436 -0.6494,-1.83553 -0.6494,-3.03351v-16.68877c0,-0.32025 0.05931,-0.62272 0.17792,-0.90739c0.11861,-0.28467 0.2817,-0.53376 0.48928,-0.74726c0.20757,-0.2135 0.45369,-0.37956 0.73836,-0.49817c0.28467,-0.11861 0.59306,-0.17792 0.92518,-0.17792h20.83428v4.62589h-18.53913v14.39362c0,0.60492 0.16013,1.06751 0.48038,1.38777c0.32025,0.32025 0.78877,0.48038 1.40556,0.48038h16.65319z" data-paper-data="{&quot;glyphName&quot;:&quot;E&quot;,&quot;glyphIndex&quot;:9,&quot;word&quot;:2,&quot;line&quot;:2}"/>
        <path d="M352.31047,260.17117c0,0.33211 -0.06227,0.64051 -0.18681,0.92518c-0.12454,0.28467 -0.2906,0.53079 -0.49817,0.73836c-0.20757,0.20757 -0.45369,0.37066 -0.73836,0.48928c-0.28467,0.11861 -0.58713,0.17792 -0.90739,0.17792c-0.28467,0 -0.57231,-0.05338 -0.86291,-0.16013c-0.2906,-0.10675 -0.54858,-0.27874 -0.77395,-0.51596l-16.90228,-17.64954v17.96979h-4.62589v-23.53864c0,-0.47445 0.13344,-0.90442 0.40032,-1.28991c0.26688,-0.38549 0.60789,-0.67313 1.02303,-0.86291c0.43887,-0.17792 0.88959,-0.2224 1.35218,-0.13344c0.46259,0.08896 0.85994,0.30543 1.19206,0.6494l16.90228,17.63174v-17.96979h4.62589z" data-paper-data="{&quot;glyphName&quot;:&quot;N&quot;,&quot;glyphIndex&quot;:10,&quot;word&quot;:2,&quot;line&quot;:2}"/>
        <path d="M362.34508,247.05856h16.24398v-10.42604h4.62589v25.51354h-4.62589v-10.42604h-16.24398v10.42604h-4.62589v-25.51354h4.62589z" data-paper-data="{&quot;glyphName&quot;:&quot;H&quot;,&quot;glyphIndex&quot;:11,&quot;word&quot;:2,&quot;line&quot;:2}"/>
        <path d="M413.65684,262.14606h-4.62589v-6.26274h-16.26177v6.26274h-4.62589v-12.75677c0,-1.86222 0.32025,-3.57617 0.96076,-5.14185c0.64051,-1.56568 1.5301,-2.91194 2.66878,-4.03875c1.13868,-1.12682 2.48493,-2.00455 4.03875,-2.6332c1.55382,-0.62865 3.24998,-0.94297 5.08848,-0.94297h10.42604c0.32025,0 0.62272,0.05931 0.90739,0.17792c0.28467,0.11861 0.53376,0.28467 0.74726,0.49817c0.2135,0.2135 0.37956,0.46259 0.49817,0.74726c0.11861,0.28467 0.17792,0.58713 0.17792,0.90739zM392.76918,251.25744h16.26177v-9.99903h-8.13088c-0.14233,0 -0.44183,0.02076 -0.89849,0.06227c-0.45666,0.04151 -0.98448,0.1453 -1.58348,0.31136c-0.59899,0.16606 -1.2306,0.42107 -1.89483,0.76505c-0.66423,0.34398 -1.27508,0.81843 -1.83256,1.42335c-0.55748,0.60492 -1.0171,1.36108 -1.37887,2.26846c-0.36177,0.90739 -0.54265,2.00752 -0.54265,3.30039z" data-paper-data="{&quot;glyphName&quot;:&quot;A&quot;,&quot;glyphIndex&quot;:12,&quot;word&quot;:2,&quot;line&quot;:2}"/>
        <path d="M444.52573,245.2082c0,1.05565 -0.13047,1.99862 -0.39142,2.82891c-0.26095,0.83029 -0.61382,1.56272 -1.05862,2.1973c-0.4448,0.63458 -0.9578,1.17723 -1.539,1.62796c-0.5812,0.45073 -1.18909,0.82139 -1.82367,1.11199c-0.63458,0.2906 -1.27508,0.50114 -1.92152,0.63161c-0.64644,0.13047 -1.25433,0.19571 -1.82367,0.19571l9.66099,8.34439h-7.15233l-9.64319,-8.34439h-3.32708v-4.62589h10.46162c0.5812,-0.04744 1.11199,-0.16902 1.59237,-0.36473c0.48038,-0.19571 0.89552,-0.45962 1.24543,-0.79174c0.34991,-0.33211 0.61975,-0.73243 0.80953,-1.20095c0.18978,-0.46852 0.28467,-1.00524 0.28467,-1.61016v-2.91787c0,-0.26095 -0.03262,-0.45962 -0.09786,-0.59603c-0.06524,-0.1364 -0.14827,-0.23722 -0.24909,-0.30246c-0.10082,-0.06524 -0.20757,-0.10379 -0.32025,-0.11565c-0.11268,-0.01186 -0.21647,-0.01779 -0.31136,-0.01779h-15.26543v20.88766h-4.62589v-23.18281c0,-0.32025 0.05931,-0.62272 0.17792,-0.90739c0.11861,-0.28467 0.2817,-0.53376 0.48928,-0.74726c0.20757,-0.2135 0.45369,-0.37956 0.73836,-0.49817c0.28467,-0.11861 0.59306,-0.17792 0.92518,-0.17792h17.56058c1.03193,0 1.90373,0.18681 2.6154,0.56044c0.71167,0.37363 1.28991,0.84215 1.73471,1.40556c0.4448,0.56341 0.76505,1.1713 0.96076,1.82367c0.19571,0.65237 0.29357,1.26322 0.29357,1.83256z" data-paper-data="{&quot;glyphName&quot;:&quot;R&quot;,&quot;glyphIndex&quot;:13,&quot;word&quot;:2,&quot;line&quot;:2}"/>
        <path d="M453.83088,262.14606h-4.62589v-25.51354h4.62589z" data-paper-data="{&quot;glyphName&quot;:&quot;I&quot;,&quot;glyphIndex&quot;:14,&quot;word&quot;:2,&quot;line&quot;:2}"/>
        <path d="M484.27277,262.14606h-4.62589v-6.26274h-16.26177v6.26274h-4.62589v-12.75677c0,-1.86222 0.32025,-3.57617 0.96076,-5.14185c0.64051,-1.56568 1.5301,-2.91194 2.66878,-4.03875c1.13868,-1.12682 2.48493,-2.00455 4.03875,-2.6332c1.55382,-0.62865 3.24998,-0.94297 5.08848,-0.94297h10.42604c0.32025,0 0.62272,0.05931 0.90739,0.17792c0.28467,0.11861 0.53376,0.28467 0.74726,0.49817c0.2135,0.2135 0.37956,0.46259 0.49817,0.74726c0.11861,0.28467 0.17792,0.58713 0.17792,0.90739zM463.38512,251.25744h16.26177v-9.99903h-8.13088c-0.14233,0 -0.44183,0.02076 -0.89849,0.06227c-0.45666,0.04151 -0.98448,0.1453 -1.58348,0.31136c-0.59899,0.16606 -1.2306,0.42107 -1.89483,0.76505c-0.66423,0.34398 -1.27508,0.81843 -1.83256,1.42335c-0.55748,0.60492 -1.0171,1.36108 -1.37887,2.26846c-0.36177,0.90739 -0.54265,2.00752 -0.54265,3.30039z" data-paper-data="{&quot;glyphName&quot;:&quot;A&quot;,&quot;glyphIndex&quot;:15,&quot;lastGlyphOfWord&quot;:true,&quot;word&quot;:2,&quot;line&quot;:2,&quot;lastGlyphOfSecondLine&quot;:true}"/>
      </g>
      <g data-paper-data="{&quot;fillRule&quot;:&quot;evenodd&quot;,&quot;fillRuleOriginal&quot;:&quot;evenodd&quot;,&quot;isIcon&quot;:true,&quot;iconStyle&quot;:&quot;standalone&quot;,&quot;selectedEffects&quot;:{&quot;container&quot;:&quot;&quot;,&quot;transformation&quot;:&quot;&quot;,&quot;pattern&quot;:&quot;&quot;},&quot;bounds&quot;:{&quot;x&quot;:65.72722769337429,&quot;y&quot;:180.2070901101753,&quot;width&quot;:110.52852307941987,&quot;height&quot;:109.58581977964931},&quot;iconType&quot;:&quot;icon&quot;,&quot;rawIconId&quot;:&quot;cba4c8f0-d4ef-4344-82de-0216154ae490&quot;,&quot;isDetailed&quot;:false,&quot;suitableAsStandaloneIcon&quot;:true}" fill-rule="evenodd">
        <path d="M65.72723,234.99984c0,-30.26138 24.53168,-54.79275 54.79306,-54.79275c12.76184,0 24.50458,4.36273 33.81819,11.67829c-7.09264,-3.94976 -15.26131,-6.19928 -23.95539,-6.19928c-27.23522,0 -49.31381,22.0785 -49.31381,49.31373c0,27.23522 22.07859,49.31373 49.31381,49.31373c8.69408,0 16.86276,-2.24984 23.95539,-6.19912c-9.3136,7.31557 -21.05634,11.67846 -33.81819,11.67846c-30.26138,0 -54.79306,-24.53168 -54.79306,-54.79306zM176.25575,234.99984c0,24.20906 -19.62541,43.83447 -43.83447,43.83447c-10.20946,0 -19.60364,-3.49034 -27.05455,-9.3428c5.67413,3.15941 12.20902,4.95934 19.16438,4.95934c21.78814,0 39.45093,-17.66287 39.45093,-39.45101c0,-21.78822 -17.66279,-39.45101 -39.45093,-39.45101c-6.95536,0 -13.49025,1.80026 -19.16438,4.95959c7.45092,-5.85246 16.84509,-9.34329 27.05455,-9.34329c24.20906,0 43.83447,19.62558 43.83447,43.83471zM101.14235,259.90593v-49.81186h7.70335v20.93609l20.27446,-20.93609h10.82253l-24.43336,24.85867l25.33131,24.9532h-10.96432l-21.03062,-21.03062v21.03062z" data-paper-data="{&quot;isPathIcon&quot;:true}"/>
      </g>
    </g>
  </g>
</svg>